PathFileType	4	(X/Y/Z)	C:\Users\WrightLab\Desktop\Jo\P2_Trial24.trc
DataRate	CameraRate	NumFrames	NumMarkers	Units	OrigDataRate	OrigDataStartFrame	OrigNumFrames
100.00	100.00	       9	19	mm	100.00	299	       597
Frame#	Time	Headset_Front			Headset_Back			Headset_Left			Headset_Right			Left_Shoulder			Right_Shoulder			Sternum			C7			Left Elbow			Right Elbow			Left Wrist			Right Wrist			Left ASIS			Right ASIS			S2			Left Knee			Right Knee			Left Ankle			Right Ankle			
		X1	Y1	Z1	X2	Y2	Z2	X3	Y3	Z3	X4	Y4	Z4	X5	Y5	Z5	X6	Y6	Z6	X7	Y7	Z7	X8	Y8	Z8	X9	Y9	Z9	X10	Y10	Z10	X11	Y11	Z11	X12	Y12	Z12	X13	Y13	Z13	X14	Y14	Z14	X15	Y15	Z15	X16	Y16	Z16	X17	Y17	Z17	X18	Y18	Z18	X19	Y19	Z19	

299	2.980	-346.23367	1429.80444	381.28784	-386.68234	1664.92749	184.93297	-271.23508	1540.09521	214.83424	-456.10861	1527.49585	353.57681	-313.64841	1409.99390	67.47901	-562.43494	1419.06213	278.11176	-397.22891	1297.31604	229.06383	-523.86115	1412.91296	101.27193	-263.66135	1061.76038	-48.48002	-677.39886	1113.44312	371.95218	-260.64362	821.25085	-89.21423	-665.79919	881.33325	483.85089	-370.30237	995.07465	217.65933	-481.43307	992.47443	293.85373	-574.22998	925.82422	40.62780	-231.22060	537.15149	323.70596	-735.91638	545.85437	255.67142	-309.15921	225.24063	321.45941	-676.49396	113.18348	189.98355	
300	2.990	-339.49545	1427.55237	392.44583	-379.83197	1662.76050	196.04663	-264.86737	1537.59338	227.17087	-449.51437	1525.85986	365.09274	-307.67038	1408.78711	79.10674	-557.05286	1416.64160	290.37122	-391.99695	1295.23828	239.82932	-517.82709	1410.52991	112.49754	-258.35126	1060.71423	-39.46648	-667.15900	1110.37622	383.52423	-257.52002	821.65320	-84.96889	-654.56091	880.19012	498.40298	-363.68356	993.66956	229.38953	-474.34552	990.81720	304.40735	-565.84637	923.86938	49.50185	-216.88440	534.94299	329.51672	-730.26569	543.05652	258.30438	-278.31107	215.18275	338.99805	-679.08545	110.82167	188.73035	
301	3.000	-332.84164	1425.73059	403.59036	-374.31604	1660.59058	207.25467	-258.57495	1535.23340	239.04440	-442.45242	1523.76794	376.13812	-300.69666	1406.93140	90.48769	-551.00061	1414.12524	301.09930	-388.16019	1291.50818	248.19736	-511.13330	1408.14807	123.18314	-253.60933	1059.71436	-30.45758	-657.24432	1107.21057	395.16150	-253.09987	821.78894	-79.65659	-642.55627	878.84381	513.48285	-356.32678	992.86682	240.56859	-467.84497	988.65100	315.67090	-556.16815	921.38171	59.49999	-205.79427	531.80432	336.54474	-723.83582	540.11047	261.18201	-246.24480	203.97533	357.17630	-681.06250	107.86163	187.62140	
302	3.010	-325.23062	1423.78564	414.56137	-367.52087	1658.01685	217.61166	-252.20013	1533.10352	250.17838	-435.81302	1521.44897	387.34528	-293.84146	1405.19153	102.20830	-544.68726	1411.16199	311.11996	-382.82272	1289.03992	258.84183	-504.40521	1405.88562	134.00858	-247.79503	1058.82813	-21.72941	-647.32373	1103.88049	406.24338	-248.52469	821.19135	-72.79743	-631.21680	877.85046	527.56439	-348.33701	993.14728	252.35025	-460.62827	985.54767	326.06366	-546.66425	919.24152	69.13194	-196.19954	526.34009	342.63046	-717.21564	537.28998	264.03635	-213.27365	193.96503	371.09378	-683.08221	105.82915	187.69006	
303	3.020	-318.60309	1422.48059	425.73022	-360.73166	1656.03772	228.08002	-245.62079	1531.01379	261.02652	-429.09717	1519.50122	398.56918	-286.93192	1403.04651	114.12744	-538.62292	1408.49976	322.04065	-375.27155	1286.25024	270.22736	-497.98117	1403.16479	145.01279	-241.91884	1057.60376	-12.54829	-637.20502	1100.33777	417.21631	-244.13036	821.53790	-66.75166	-619.87701	876.94739	541.88196	-341.14478	991.24756	264.18610	-454.25537	983.78894	336.62469	-536.21771	916.66931	78.22190	-185.86961	520.74579	350.50552	-711.05548	534.49927	267.46658	-179.36461	183.39424	387.62271	-685.21838	103.30906	188.39105	
304	3.030	-310.94592	1420.62439	436.84265	-355.29086	1653.70837	238.74593	-239.17900	1529.29492	269.79822	-422.81445	1518.01123	409.52625	-279.72397	1400.82971	125.89295	-531.88379	1404.67029	332.25964	-368.74005	1284.05029	281.05487	-491.23843	1400.53503	155.87944	-236.37204	1056.66821	-2.96142	-627.11029	1096.96289	427.43948	-239.72723	821.24408	-60.66586	-608.40753	875.73547	555.62421	-332.92322	991.09540	275.33249	-446.39590	981.47119	346.60391	-524.94366	913.01630	88.44395	-175.54295	514.80396	357.75613	-704.39001	532.24158	270.41000	-145.25452	174.26117	402.68469	-688.00232	101.08190	187.40915	
305	3.040	-303.86130	1418.98816	448.47849	-348.54846	1651.21545	249.02161	-232.32596	1527.39001	279.85953	-415.76279	1516.13501	420.20959	-272.00604	1398.76807	137.59502	-525.60327	1402.94116	343.74802	-362.03845	1281.22974	292.11447	-483.80627	1397.60120	166.98073	-228.10504	1055.06909	7.13104	-617.40125	1094.57935	439.20615	-234.07474	819.40521	-53.88181	-597.84967	874.35425	569.16107	-323.89868	989.95636	288.04254	-438.46304	978.20166	358.08411	-513.83887	910.05725	98.09689	-165.74979	508.30630	365.58722	-697.44702	529.81110	273.99069	-111.08823	168.25058	414.29318	-689.36017	99.59074	186.70456	
306	3.050	-296.95557	1417.62817	460.17316	-341.82703	1648.27832	259.03497	-225.06392	1524.84131	293.45221	-408.49066	1514.21948	431.21326	-264.73151	1396.45496	149.23444	-518.72894	1400.12122	354.23782	-355.63736	1278.79492	303.88205	-476.57367	1394.71692	177.90848	-221.01773	1053.01428	17.52221	-608.68982	1092.81897	451.19382	-228.09718	818.74042	-47.40584	-586.60675	872.36688	582.10620	-315.08386	988.71918	298.50217	-430.29749	975.96368	368.99524	-501.73892	906.62000	108.10442	-156.23477	502.00812	372.53345	-689.89404	527.56543	277.63785	-77.90738	163.63579	423.83405				
307	3.060	-289.20828	1416.53967	471.40314	-334.99139	1645.62366	269.24634	-217.48216	1522.91223	304.18875	-401.47919	1512.28528	441.86176	-256.92413	1393.92883	160.55363	-511.68176	1397.49622	365.52655	-347.88373	1276.80542	315.08469	-469.03546	1392.09009	189.05453	-213.75522	1050.78601	27.91566	-599.62518	1090.49707	462.94638	-222.52502	816.94165	-40.12998	-575.55548	870.51044	595.71655	-306.20416	987.68878	312.50070	-421.65851	973.40454	379.93054	-489.06870	903.56134	118.08054	-146.52670	494.99603	380.36462	-682.27240	525.82947	281.27859	-45.39687	160.18198	435.02136				
